<mxfile host="app.diagrams.net" agent="Mozilla/5.0 (Windows NT 10.0; Win64; x64) AppleWebKit/537.36 (KHTML, like Gecko) Chrome/134.0.0.0 Safari/537.36 OPR/119.0.0.0" version="27.1.5">
  <diagram id="C5RBs43oDa-KdzZeNtuy" name="Page-1">
    <mxGraphModel dx="1611" dy="778" grid="1" gridSize="10" guides="1" tooltips="1" connect="1" arrows="1" fold="1" page="1" pageScale="1" pageWidth="827" pageHeight="1169" math="0" shadow="0">
      <root>
        <mxCell id="WIyWlLk6GJQsqaUBKTNV-0" />
        <mxCell id="WIyWlLk6GJQsqaUBKTNV-1" parent="WIyWlLk6GJQsqaUBKTNV-0" />
        <mxCell id="WIfyMI-WzecUwXFEvHSk-4" style="edgeStyle=orthogonalEdgeStyle;rounded=0;orthogonalLoop=1;jettySize=auto;html=1;" parent="WIyWlLk6GJQsqaUBKTNV-1" source="WIyWlLk6GJQsqaUBKTNV-3" target="WIfyMI-WzecUwXFEvHSk-3" edge="1">
          <mxGeometry relative="1" as="geometry" />
        </mxCell>
        <mxCell id="TsQ4GHq4ZzZLB4OCEzy6-2" value="No" style="edgeLabel;html=1;align=center;verticalAlign=middle;resizable=0;points=[];" vertex="1" connectable="0" parent="WIfyMI-WzecUwXFEvHSk-4">
          <mxGeometry x="0.6522" y="-2" relative="1" as="geometry">
            <mxPoint as="offset" />
          </mxGeometry>
        </mxCell>
        <mxCell id="WIyWlLk6GJQsqaUBKTNV-3" value="User Arrives on main page" style="rounded=1;whiteSpace=wrap;html=1;fontSize=12;glass=0;strokeWidth=1;shadow=0;" parent="WIyWlLk6GJQsqaUBKTNV-1" vertex="1">
          <mxGeometry x="340" y="10" width="120" height="40" as="geometry" />
        </mxCell>
        <mxCell id="WIfyMI-WzecUwXFEvHSk-6" style="edgeStyle=orthogonalEdgeStyle;rounded=0;orthogonalLoop=1;jettySize=auto;html=1;" parent="WIyWlLk6GJQsqaUBKTNV-1" source="WIfyMI-WzecUwXFEvHSk-3" target="WIfyMI-WzecUwXFEvHSk-5" edge="1">
          <mxGeometry relative="1" as="geometry" />
        </mxCell>
        <UserObject label="Filters Research" link="https://github.com/Conchero/ecf-back/blob/main/prodDocs/FilterResearch.drawio" linkTarget="_blank" id="WIfyMI-WzecUwXFEvHSk-3">
          <mxCell style="shape=process;whiteSpace=wrap;html=1;backgroundOutline=1;" parent="WIyWlLk6GJQsqaUBKTNV-1" vertex="1">
            <mxGeometry x="340" y="280" width="120" height="60" as="geometry" />
          </mxCell>
        </UserObject>
        <mxCell id="WIfyMI-WzecUwXFEvHSk-8" style="edgeStyle=orthogonalEdgeStyle;rounded=0;orthogonalLoop=1;jettySize=auto;html=1;" parent="WIyWlLk6GJQsqaUBKTNV-1" source="WIfyMI-WzecUwXFEvHSk-5" edge="1">
          <mxGeometry relative="1" as="geometry">
            <mxPoint x="400" y="520" as="targetPoint" />
          </mxGeometry>
        </mxCell>
        <mxCell id="WIfyMI-WzecUwXFEvHSk-5" value="Click On Room" style="shape=parallelogram;perimeter=parallelogramPerimeter;whiteSpace=wrap;html=1;fixedSize=1;" parent="WIyWlLk6GJQsqaUBKTNV-1" vertex="1">
          <mxGeometry x="340" y="400" width="120" height="60" as="geometry" />
        </mxCell>
        <mxCell id="WIfyMI-WzecUwXFEvHSk-15" style="edgeStyle=orthogonalEdgeStyle;rounded=0;orthogonalLoop=1;jettySize=auto;html=1;" parent="WIyWlLk6GJQsqaUBKTNV-1" target="WIfyMI-WzecUwXFEvHSk-9" edge="1">
          <mxGeometry relative="1" as="geometry">
            <mxPoint x="400" y="580" as="sourcePoint" />
          </mxGeometry>
        </mxCell>
        <mxCell id="WIfyMI-WzecUwXFEvHSk-13" style="edgeStyle=orthogonalEdgeStyle;rounded=0;orthogonalLoop=1;jettySize=auto;html=1;exitX=1;exitY=0.5;exitDx=0;exitDy=0;entryX=1;entryY=0.5;entryDx=0;entryDy=0;" parent="WIyWlLk6GJQsqaUBKTNV-1" source="WIfyMI-WzecUwXFEvHSk-9" edge="1" target="WIfyMI-WzecUwXFEvHSk-3">
          <mxGeometry relative="1" as="geometry">
            <mxPoint x="400" y="160" as="targetPoint" />
            <Array as="points">
              <mxPoint x="475" y="510" />
              <mxPoint x="550" y="510" />
              <mxPoint x="550" y="310" />
            </Array>
          </mxGeometry>
        </mxCell>
        <mxCell id="WIfyMI-WzecUwXFEvHSk-14" value="No" style="edgeLabel;html=1;align=center;verticalAlign=middle;resizable=0;points=[];" parent="WIfyMI-WzecUwXFEvHSk-13" vertex="1" connectable="0">
          <mxGeometry x="-0.3769" relative="1" as="geometry">
            <mxPoint as="offset" />
          </mxGeometry>
        </mxCell>
        <mxCell id="WIfyMI-WzecUwXFEvHSk-16" style="edgeStyle=orthogonalEdgeStyle;rounded=0;orthogonalLoop=1;jettySize=auto;html=1;" parent="WIyWlLk6GJQsqaUBKTNV-1" source="WIfyMI-WzecUwXFEvHSk-9" target="WIfyMI-WzecUwXFEvHSk-11" edge="1">
          <mxGeometry relative="1" as="geometry" />
        </mxCell>
        <mxCell id="WIfyMI-WzecUwXFEvHSk-17" value="Yes" style="edgeLabel;html=1;align=center;verticalAlign=middle;resizable=0;points=[];" parent="WIfyMI-WzecUwXFEvHSk-16" vertex="1" connectable="0">
          <mxGeometry x="-0.0543" y="-1" relative="1" as="geometry">
            <mxPoint as="offset" />
          </mxGeometry>
        </mxCell>
        <mxCell id="WIfyMI-WzecUwXFEvHSk-9" value="Make Reservation ?" style="rhombus;whiteSpace=wrap;html=1;" parent="WIyWlLk6GJQsqaUBKTNV-1" vertex="1">
          <mxGeometry x="325" y="610" width="150" height="80" as="geometry" />
        </mxCell>
        <mxCell id="WIfyMI-WzecUwXFEvHSk-20" style="edgeStyle=orthogonalEdgeStyle;rounded=0;orthogonalLoop=1;jettySize=auto;html=1;" parent="WIyWlLk6GJQsqaUBKTNV-1" source="WIfyMI-WzecUwXFEvHSk-11" target="WIfyMI-WzecUwXFEvHSk-19" edge="1">
          <mxGeometry relative="1" as="geometry" />
        </mxCell>
        <mxCell id="WIfyMI-WzecUwXFEvHSk-28" value="No" style="edgeLabel;html=1;align=center;verticalAlign=middle;resizable=0;points=[];" parent="WIfyMI-WzecUwXFEvHSk-20" vertex="1" connectable="0">
          <mxGeometry x="0.2737" y="3" relative="1" as="geometry">
            <mxPoint as="offset" />
          </mxGeometry>
        </mxCell>
        <mxCell id="WIfyMI-WzecUwXFEvHSk-24" style="edgeStyle=orthogonalEdgeStyle;rounded=0;orthogonalLoop=1;jettySize=auto;html=1;entryX=0.5;entryY=0;entryDx=0;entryDy=0;" parent="WIyWlLk6GJQsqaUBKTNV-1" source="WIfyMI-WzecUwXFEvHSk-11" target="WIfyMI-WzecUwXFEvHSk-26" edge="1">
          <mxGeometry relative="1" as="geometry">
            <mxPoint x="400" y="890" as="targetPoint" />
          </mxGeometry>
        </mxCell>
        <mxCell id="WIfyMI-WzecUwXFEvHSk-29" value="Yes" style="edgeLabel;html=1;align=center;verticalAlign=middle;resizable=0;points=[];" parent="WIfyMI-WzecUwXFEvHSk-24" vertex="1" connectable="0">
          <mxGeometry x="-0.1333" y="-2" relative="1" as="geometry">
            <mxPoint as="offset" />
          </mxGeometry>
        </mxCell>
        <mxCell id="WIfyMI-WzecUwXFEvHSk-11" value="User Connected ?" style="rhombus;whiteSpace=wrap;html=1;" parent="WIyWlLk6GJQsqaUBKTNV-1" vertex="1">
          <mxGeometry x="335" y="740" width="130" height="80" as="geometry" />
        </mxCell>
        <mxCell id="WIfyMI-WzecUwXFEvHSk-27" style="edgeStyle=orthogonalEdgeStyle;rounded=0;orthogonalLoop=1;jettySize=auto;html=1;exitX=0.5;exitY=0;exitDx=0;exitDy=0;entryX=0;entryY=0.5;entryDx=0;entryDy=0;" parent="WIyWlLk6GJQsqaUBKTNV-1" source="WIfyMI-WzecUwXFEvHSk-19" edge="1">
          <mxGeometry relative="1" as="geometry">
            <mxPoint x="340" y="550" as="targetPoint" />
            <Array as="points">
              <mxPoint x="180" y="550" />
            </Array>
          </mxGeometry>
        </mxCell>
        <UserObject label="Connect Popup" link="https://github.com/Conchero/ecf-back/blob/main/prodDocs/Algoritme/ConnectPopup.drawio" id="WIfyMI-WzecUwXFEvHSk-19">
          <mxCell style="shape=process;whiteSpace=wrap;html=1;backgroundOutline=1;" parent="WIyWlLk6GJQsqaUBKTNV-1" vertex="1">
            <mxGeometry x="120" y="750" width="120" height="60" as="geometry" />
          </mxCell>
        </UserObject>
        <mxCell id="WIfyMI-WzecUwXFEvHSk-31" style="edgeStyle=orthogonalEdgeStyle;rounded=0;orthogonalLoop=1;jettySize=auto;html=1;entryX=0.5;entryY=0;entryDx=0;entryDy=0;" parent="WIyWlLk6GJQsqaUBKTNV-1" source="WIfyMI-WzecUwXFEvHSk-26" target="TsQ4GHq4ZzZLB4OCEzy6-0" edge="1">
          <mxGeometry relative="1" as="geometry">
            <mxPoint x="400" y="1020" as="targetPoint" />
          </mxGeometry>
        </mxCell>
        <mxCell id="WIfyMI-WzecUwXFEvHSk-26" value="Validate Choice" style="shape=parallelogram;perimeter=parallelogramPerimeter;whiteSpace=wrap;html=1;fixedSize=1;" parent="WIyWlLk6GJQsqaUBKTNV-1" vertex="1">
          <mxGeometry x="340" y="890" width="120" height="60" as="geometry" />
        </mxCell>
        <mxCell id="WIfyMI-WzecUwXFEvHSk-32" value="Check Room" style="shape=parallelogram;perimeter=parallelogramPerimeter;whiteSpace=wrap;html=1;fixedSize=1;" parent="WIyWlLk6GJQsqaUBKTNV-1" vertex="1">
          <mxGeometry x="335" y="520" width="120" height="60" as="geometry" />
        </mxCell>
        <mxCell id="TsQ4GHq4ZzZLB4OCEzy6-0" value="Send Reservation Request" style="shape=parallelogram;perimeter=parallelogramPerimeter;whiteSpace=wrap;html=1;fixedSize=1;" vertex="1" parent="WIyWlLk6GJQsqaUBKTNV-1">
          <mxGeometry x="340" y="1040" width="120" height="60" as="geometry" />
        </mxCell>
        <mxCell id="TsQ4GHq4ZzZLB4OCEzy6-5" style="edgeStyle=orthogonalEdgeStyle;rounded=0;orthogonalLoop=1;jettySize=auto;html=1;entryX=0;entryY=0.5;entryDx=0;entryDy=0;" edge="1" parent="WIyWlLk6GJQsqaUBKTNV-1" source="TsQ4GHq4ZzZLB4OCEzy6-1" target="TsQ4GHq4ZzZLB4OCEzy6-4">
          <mxGeometry relative="1" as="geometry" />
        </mxCell>
        <mxCell id="TsQ4GHq4ZzZLB4OCEzy6-1" value="IsAdmin" style="rhombus;whiteSpace=wrap;html=1;" vertex="1" parent="WIyWlLk6GJQsqaUBKTNV-1">
          <mxGeometry x="360" y="100" width="80" height="80" as="geometry" />
        </mxCell>
        <mxCell id="TsQ4GHq4ZzZLB4OCEzy6-4" value="Admin Dashboard" style="shape=process;whiteSpace=wrap;html=1;backgroundOutline=1;" vertex="1" parent="WIyWlLk6GJQsqaUBKTNV-1">
          <mxGeometry x="510" y="110" width="120" height="60" as="geometry" />
        </mxCell>
      </root>
    </mxGraphModel>
  </diagram>
</mxfile>
